# xmcd CD database file
#
# Track frame offsets:
#	150
#	20435
#	48363
#	66641
#	112200
#	135401
#	150508
#	175956
#	209584
#	226486
#	247771
#
# Disc length: 3612 seconds
#
# Revision: 0
# Processed by: cddbd v1.5.1PL2 Copyright (c) Steve Scherf et al.
# Submitted via: Feurio! 1.68 - http://www.feurio.com
#
DISCID=980e1a0b
DTITLE=Engerling - Rock aus Deutschland
DYEAR=1900
DGENRE=Blues
TTITLE0=Engerling's Blues
TTITLE1=Muschellied
TTITLE2=Blues vom roten Hahn
TTITLE3=Moll - Blues
TTITLE4=Die anderen
TTITLE5=Schwester Bessies Boogie
TTITLE6=Narkose Traum
TTITLE7=Tagtraum früh im Park
TTITLE8=Moll's Party
TTITLE9=So oder so
TTITLE10=Mama Wilson
EXTD=
EXTT0=
EXTT1=
EXTT2=
EXTT3=
EXTT4=
EXTT5=
EXTT6=
EXTT7=
EXTT8=
EXTT9=
EXTT10=
PLAYORDER=
